#N canvas 0 0 765 473 10;
#X obj 56 105 textfile;
#X msg 101 82 rewind;
#X obj 66 31 metro 200;
#X obj 66 2 tgl 15 0 empty empty empty 17 7 0 10 -262144 -1 -1 0 1
;
#X obj 94 135 unpack s f f;
#X obj 78 62 bng 15 250 50 0 empty empty empty 17 7 0 10 -262144 -1
-1;
#X msg 169 79 read Jointreport.csv cr;
#X floatatom 128 181 5 0 0 0 - - -;
#X floatatom 186 182 5 0 0 0 - - -;
#X obj 85 285 mtof;
#X obj 85 333 osc~;
#X obj -12 345 vline~;
#X msg -17 317 1 20 \, 0 100 30;
#X obj 69 370 *~;
#X obj 70 424 dac~;
#X obj 69 394 *~ 0.3;
#X floatatom 95 309 5 0 0 0 - - -;
#X obj 86 259 + 72;
#X obj 156 329 vline~;
#X msg 151 301 1 20 \, 0 100 30;
#X obj 236 365 *~;
#X obj 237 419 dac~;
#X floatatom 263 293 5 0 0 0 - - -;
#X obj 254 243 + 72;
#X obj 170 54 loadbang;
#X obj 143 201 r mul1;
#X obj 201 202 r mul2;
#X obj 422 53 unpack f f;
#X text -9 180 Date -->;
#X text 222 181 <--- Visits;
#X obj 422 81 s mul1;
#X obj 479 80 s mul2;
#X msg 382 7 1 1;
#X obj 128 222 * 3;
#X obj 186 224 * 2;
#X msg 410 7 3 2;
#X msg 439 7 2 2;
#X msg 468 7 3 3;
#X obj 253 317 phasor~;
#X obj 255 270 mtof;
#X obj 253 340 bp~ 440 20;
#X obj 235 389 *~ 0.6;
#X msg 497 7 4 5;
#X msg 526 7 4 7;
#X msg 556 7 5 7;
#X obj 309 181 s v1;
#X obj 345 181 s v2;
#X obj -12 162 s date;
#N canvas 47 211 883 287 gem 1;
#X obj 35 196 r date;
#X obj 374 52 r v1;
#X obj 21 52 gemwin;
#X msg 19 22 create \, 1;
#X obj 92 178 gemhead;
#X msg 89 19 destroy;
#X obj 151 31 sel 27;
#X obj 151 5 key;
#X obj 18 -4 inlet;
#X msg 163 250 font tahoma.ttf;
#X msg 18 228 text \$1;
#X obj 163 220 loadbang;
#X obj 269 179 gemhead;
#X msg 344 263 font tahoma.ttf;
#X obj 344 224 loadbang;
#X msg 352 245 text www.marmitejunction.com;
#X obj 269 200 translateXYZ -2 -3 0;
#X obj 539 171 gemhead;
#X msg 614 255 font tahoma.ttf;
#X obj 614 216 loadbang;
#X msg 622 237 text www.andrewfaraday.com;
#X msg 115 235 10;
#X obj 81 261 text3d;
#X obj 532 257 text3d;
#X obj 261 265 text3d;
#X msg 295 239 4;
#X msg 565 221 4;
#X obj 539 191 translateXYZ 2 -3 0;
#X obj 266 21 gemhead;
#X obj 306 151 rectangle 1 0.2;
#X obj 527 41 gemhead;
#X obj 541 131 rectangle 1 0.2;
#X obj 610 31 r v2;
#X obj 264 58 colourRGB 0 1 0.2;
#X obj 493 69 colourRGB 0 1 0.2;
#X obj 306 126 translateXYZ -2 0 0;
#X obj 540 106 translateXYZ 2 0 0;
#X obj 368 80 - 3.5;
#X obj 603 60 - 3.5;
#X obj 676 93 colourRGB 0 1 0.2;
#X obj 676 69 gemhead;
#X obj 673 136 triangle 0.5;
#X floatatom 425 59 5 0 0 0 - - -;
#X obj 673 13 r v1;
#X obj 676 36 > 8;
#X obj 676 115 translateXYZ -2 3 0;
#X obj 800 101 colourRGB 0 1 0.2;
#X obj 800 77 gemhead;
#X obj 797 144 triangle 0.5;
#X obj 800 44 > 8;
#X obj 797 21 r v2;
#X obj 801 123 translateXYZ 2 3 0;
#X obj 88 196 translateXYZ -4 3.3 0;
#X connect 0 0 10 0;
#X connect 1 0 37 0;
#X connect 3 0 2 0;
#X connect 4 0 52 0;
#X connect 5 0 2 0;
#X connect 6 0 5 0;
#X connect 7 0 6 0;
#X connect 8 0 3 0;
#X connect 9 0 22 0;
#X connect 10 0 22 0;
#X connect 11 0 9 0;
#X connect 11 0 21 0;
#X connect 12 0 16 0;
#X connect 13 0 24 0;
#X connect 14 0 13 0;
#X connect 14 0 15 0;
#X connect 14 0 25 0;
#X connect 15 0 24 0;
#X connect 16 0 24 0;
#X connect 17 0 27 0;
#X connect 18 0 23 0;
#X connect 19 0 18 0;
#X connect 19 0 20 0;
#X connect 19 0 26 0;
#X connect 20 0 23 0;
#X connect 21 0 22 1;
#X connect 25 0 24 1;
#X connect 26 0 23 1;
#X connect 27 0 23 0;
#X connect 28 0 33 0;
#X connect 30 0 34 0;
#X connect 32 0 38 0;
#X connect 33 0 35 0;
#X connect 34 0 36 0;
#X connect 35 0 29 0;
#X connect 36 0 31 0;
#X connect 37 0 35 2;
#X connect 38 0 36 2;
#X connect 39 0 45 0;
#X connect 40 0 39 0;
#X connect 42 0 37 0;
#X connect 43 0 44 0;
#X connect 44 0 40 0;
#X connect 45 0 41 0;
#X connect 46 0 51 0;
#X connect 47 0 46 0;
#X connect 49 0 47 0;
#X connect 50 0 49 0;
#X connect 51 0 48 0;
#X connect 52 0 22 0;
#X restore -84 72 pd gem;
#X obj -84 40 bng 15 250 50 0 empty empty empty 17 7 0 10 -262144 -1
-1;
#X text -65 36 <-- initialize vis;
#X text 85 1 <-- Start playback;
#X connect 0 0 4 0;
#X connect 0 1 1 0;
#X connect 1 0 0 0;
#X connect 2 0 0 0;
#X connect 3 0 2 0;
#X connect 3 0 1 0;
#X connect 4 0 47 0;
#X connect 4 1 7 0;
#X connect 4 1 45 0;
#X connect 4 2 8 0;
#X connect 4 2 46 0;
#X connect 5 0 0 0;
#X connect 6 0 0 0;
#X connect 7 0 33 0;
#X connect 8 0 34 0;
#X connect 9 0 10 0;
#X connect 9 0 12 0;
#X connect 9 0 16 0;
#X connect 10 0 13 1;
#X connect 11 0 13 0;
#X connect 12 0 11 0;
#X connect 13 0 15 0;
#X connect 15 0 14 0;
#X connect 17 0 9 0;
#X connect 18 0 20 0;
#X connect 19 0 18 0;
#X connect 20 0 41 0;
#X connect 23 0 39 0;
#X connect 24 0 6 0;
#X connect 25 0 33 1;
#X connect 26 0 34 1;
#X connect 27 0 30 0;
#X connect 27 1 31 0;
#X connect 32 0 27 0;
#X connect 33 0 17 0;
#X connect 34 0 23 0;
#X connect 35 0 27 0;
#X connect 36 0 27 0;
#X connect 37 0 27 0;
#X connect 38 0 40 0;
#X connect 39 0 19 0;
#X connect 39 0 22 0;
#X connect 39 0 38 0;
#X connect 39 0 40 1;
#X connect 40 0 20 1;
#X connect 41 0 21 1;
#X connect 42 0 27 0;
#X connect 43 0 27 0;
#X connect 44 0 27 0;
#X connect 49 0 48 0;
